<?xml version="1.0"?>
<svg xmlns="http://www.w3.org/2000/svg" xmlns:xlink="http://www.w3.org/1999/xlink" version="1.1" id="Capa_1" x="0px" y="0px" viewBox="0 0 512 512" style="enable-background:new 0 0 512 512;" xml:space="preserve" width="512px" height="512px" class=""><g><path style="fill:#21D8DE;" d="M151.615,441.697V314.393c0-4.976-4.034-9.01-9.01-9.01H84.852c-4.976,0-9.01,4.034-9.01,9.01  v127.304c0,4.976,4.034,9.01,9.01,9.01h57.752C147.58,450.707,151.615,446.673,151.615,441.697z" data-original="#21D8DE"/><path style="fill:#10C4C4;" d="M142.604,305.383H97.111c4.976,0,9.01,4.034,9.01,9.01v127.304c0,4.976-4.034,9.01-9.01,9.01h45.493  c4.976,0,9.01-4.034,9.01-9.01V314.393C151.615,309.417,147.58,305.383,142.604,305.383z" data-original="#10C4C4"/><path style="fill:#FF6D3A;" d="M289.02,441.697V254.356c0-4.977-4.034-9.011-9.011-9.011h-57.751c-4.976,0-9.01,4.034-9.01,9.01  v187.341c0,4.976,4.034,9.01,9.01,9.01h57.752C284.986,450.707,289.02,446.673,289.02,441.697z" data-original="#FF6D3A"/><path style="fill:#ED5729;" d="M280.01,245.345h-45.737c4.977,0,9.011,4.034,9.011,9.011v187.341c0,4.976-4.034,9.01-9.01,9.01  h45.737c4.976,0,9.01-4.034,9.01-9.01V254.356C289.02,249.38,284.986,245.345,280.01,245.345z" data-original="#ED5729"/><path style="fill:#FF4C4C;" d="M426.427,441.696V188.134c0-4.976-4.034-9.01-9.01-9.01h-57.752c-4.976,0-9.01,4.034-9.01,9.01  v253.562c0,4.976,4.034,9.01,9.01,9.01h57.752C422.393,450.707,426.427,446.673,426.427,441.696z" data-original="#FF4C4C"/><path style="fill:#F33939;" d="M417.417,179.124h-46.203c4.976,0,9.01,4.034,9.01,9.01v253.562c0,4.977-4.034,9.011-9.011,9.011  h46.203c4.977,0,9.011-4.034,9.011-9.011V188.134C426.427,183.158,422.393,179.124,417.417,179.124z" data-original="#F33939" class=""/><path style="fill:#2D5871;" d="M498.533,440.042H37.35c-3.407,0-6.169-2.762-6.169-6.169V57.408c0-3.407-2.762-6.169-6.169-6.169  H13.467c-3.407,0-6.169,2.762-6.169,6.169v402.045c0,3.407,2.762,6.169,6.169,6.169h485.066c3.407,0,6.169-2.762,6.169-6.169  v-13.242C504.702,442.804,501.94,440.042,498.533,440.042z" data-original="#2D5871"/><circle style="fill:#FFB125;" cx="390.98" cy="359.35" r="80.69" data-original="#FFB125"/><path style="fill:#FF901D;" d="M448.037,416.408c31.512-31.512,31.512-82.602,0-114.113L333.923,416.408  C365.435,447.92,416.525,447.92,448.037,416.408z" data-original="#FF901D"/><path d="M82.937,252.166c0.238,0.011,1.234,0.054,2.942,0.054c10.516,0,47.928-1.614,100.085-22.021  c35.368-13.838,70.271-33.529,103.741-58.527c38.462-28.727,75.122-64.598,109.128-106.721l2.916,20.832  c0.511,3.649,3.637,6.287,7.219,6.287c0.336,0,0.678-0.023,1.021-0.071c3.992-0.559,6.775-4.248,6.216-8.24l-5.375-38.392  c-0.271-1.933-1.304-3.677-2.87-4.843c-1.565-1.165-3.531-1.655-5.462-1.359l-42.296,6.478c-3.985,0.61-6.72,4.335-6.11,8.319  c0.61,3.985,4.337,6.722,8.319,6.11l24.647-3.775c-32.96,40.749-68.409,75.459-105.538,103.27  c-32.308,24.2-65.951,43.274-99.994,56.694C123.587,239.1,84.023,237.6,83.634,237.586c-4.034-0.204-7.437,2.914-7.632,6.936  C75.806,248.548,78.911,251.97,82.937,252.166z" data-original="#000000" class=""/><path d="M498.533,432.744h-58.979c4.855-3.228,9.427-6.958,13.643-11.175c16.619-16.619,25.771-38.715,25.771-62.217  c0-23.503-9.152-45.599-25.771-62.217c-5.92-5.92-12.492-10.794-19.472-14.671V253c0-4.031-3.268-7.298-7.298-7.298  c-4.031,0-7.298,3.268-7.298,7.298v22.982c-19.977-6.763-41.669-6.119-61.176,1.799v-89.648c0-0.944,0.768-1.712,1.712-1.712h57.752  c0.944,0,1.712,0.768,1.712,1.712v18.115c0,4.031,3.268,7.298,7.298,7.298c4.031,0,7.298-3.268,7.298-7.298v-18.115  c0-8.993-7.316-16.309-16.309-16.309h-57.752c-8.993,0-16.309,7.316-16.309,16.309v97.242c-5.17,3.329-10.072,7.237-14.592,11.758  c-16.619,16.619-25.771,38.715-25.771,62.217c0,23.503,9.152,45.599,25.771,62.217c4.216,4.216,8.788,7.947,13.643,11.175h-46.087  V254.356c0-8.993-7.316-16.309-16.309-16.309h-57.751c-8.993,0-16.309,7.316-16.309,16.309v178.388h-47.037V314.393  c0-8.993-7.316-16.309-16.309-16.309H84.852c-8.993,0-16.309,7.316-16.309,16.309v118.351H38.48V57.408  c0-7.426-6.041-13.467-13.467-13.467H13.467C6.041,43.941,0,49.982,0,57.408v51.814c0,4.031,3.268,7.298,7.298,7.298  s7.298-3.268,7.298-7.298V58.538h9.286v375.336c0,7.426,6.042,13.467,13.467,13.467h460.053v10.983H14.597V155.342  c0-4.031-3.268-7.298-7.298-7.298S0,151.311,0,155.342v304.111c0,7.426,6.041,13.467,13.467,13.467h485.066  c7.426,0,13.467-6.041,13.467-13.467V446.21C512,438.785,505.959,432.744,498.533,432.744z M144.316,432.744H83.14V314.393  c0-0.944,0.768-1.712,1.712-1.712h57.752c0.944,0,1.712,0.768,1.712,1.712L144.316,432.744L144.316,432.744z M281.722,432.744  h-61.176V254.356c0-0.944,0.768-1.712,1.712-1.712h57.751c0.944,0,1.712,0.768,1.712,1.712L281.722,432.744L281.722,432.744z   M423.487,425.172c-0.088,0.039-0.179,0.067-0.266,0.11c-7.392,3.615-15.424,5.964-23.605,6.942  c-0.138,0.016-0.275,0.035-0.413,0.051c-0.559,0.064-1.118,0.118-1.678,0.169c-0.854,0.075-1.709,0.143-2.568,0.188  c-0.271,0.015-0.542,0.023-0.813,0.035c-1.051,0.044-2.105,0.077-3.164,0.077c-1.062,0-2.118-0.033-3.172-0.077  c-0.333-0.014-0.667-0.03-0.999-0.049c-0.795-0.044-1.587-0.105-2.378-0.174c-0.656-0.059-1.311-0.128-1.965-0.205  c-0.468-0.054-0.935-0.109-1.4-0.172c-0.665-0.091-1.328-0.187-1.99-0.296c-0.086-0.014-0.172-0.03-0.258-0.045  c-8.611-1.446-16.927-4.415-24.514-8.798c-0.04-0.023-0.082-0.038-0.122-0.06c-5.446-3.167-10.525-7.047-15.098-11.621  c-13.862-13.862-21.496-32.292-21.496-51.896s7.634-38.034,21.496-51.896c5.308-5.308,11.236-9.626,17.55-12.965  c0.178-0.095,0.358-0.185,0.537-0.278c10.563-5.474,22.184-8.218,33.809-8.218c9.293,0,18.585,1.756,27.335,5.254  c0.152,0.061,0.305,0.119,0.456,0.181c0.909,0.37,1.81,0.765,2.706,1.173c0.357,0.163,0.713,0.333,1.068,0.502  c7.356,3.496,14.251,8.271,20.33,14.35c28.615,28.616,28.615,75.176,0,103.792C437.122,417.002,430.572,421.664,423.487,425.172z" data-original="#000000" class=""/><path style="fill:#E0E4E8" d="M386.427,409.528c-15.879-0.256-26.636-8.836-26.636-15.111c0-3.074,2.689-7.299,5.891-7.299  c4.226,0,7.683,8.964,20.745,9.988v-30.093c-11.525-4.098-24.331-8.708-24.331-25.099c0-16.135,12.165-22.538,24.331-23.819v-3.714  c0-1.537,1.537-2.945,3.714-2.945c1.921,0,3.842,1.408,3.842,2.945v3.458c8.708,0.256,21.001,2.945,21.001,9.22  c0,2.433-1.793,7.299-5.635,7.299c-3.073,0-6.403-4.098-15.367-4.738v25.995c11.141,4.098,23.306,9.732,23.306,27.148  c0,15.751-9.476,24.459-23.306,26.38v4.354c0,1.537-1.921,2.945-3.842,2.945c-2.177,0-3.714-1.408-3.714-2.945v-3.969H386.427z   M387.196,353.183v-23.306c-7.171,0.896-12.293,4.097-12.293,10.757C374.902,347.933,380.409,350.622,387.196,353.183z   M393.214,369.831v27.02c6.915-1.28,11.269-5.378,11.269-12.678C404.483,376.105,399.489,372.52,393.214,369.831z" data-original="#DD7219" class="active-path" data-old_color="#e0e4e8"/></g> </svg>
