<?xml version="1.0"?>
<svg xmlns="http://www.w3.org/2000/svg" xmlns:xlink="http://www.w3.org/1999/xlink" version="1.1" id="Capa_1" x="0px" y="0px" viewBox="0 0 56 56" style="enable-background:new 0 0 56 56;" xml:space="preserve" width="512px" height="512px" class=""><g><g>
	<path d="M54.187,18.503l-4.904-7.828c-0.7-1.117-2.177-1.448-3.286-0.736l-7.349,4.719   C37.072,15.67,35,14.538,35,12.665V2.368C35,1.06,33.94,0,32.632,0h-9.264C22.06,0,21,1.06,21,2.368v10.354   c0,1.861-2.048,2.995-3.626,2.007l-7.38-4.623c-1.108-0.694-2.57-0.359-3.264,0.75l-4.918,7.85c-0.694,1.108-0.359,2.57,0.75,3.264   l8.887,5.567c1.481,0.928,1.481,3.086,0,4.014l-8.887,5.567c-1.108,0.694-1.444,2.156-0.75,3.264l4.918,7.85   c0.694,1.108,2.156,1.444,3.264,0.75l7.38-4.623C18.952,43.371,21,44.505,21,46.366v7.266C21,54.94,22.06,56,23.368,56h9.264   C33.94,56,35,54.94,35,53.632V46.36c0-1.878,2.082-3.009,3.657-1.987l7.336,4.76c1.11,0.72,2.594,0.391,3.296-0.729l4.898-7.818   c0.694-1.108,0.359-2.57-0.75-3.264l-9.211-5.77c-1.481-0.928-1.481-3.086,0-4.014l9.211-5.77   C54.546,21.073,54.882,19.611,54.187,18.503z" data-original="#14A085" class="active-path" data-old_color="#18acd7" fill="#18acd7"/>
</g></g> </svg>
